<mxfile host="www.draw.io" modified="2020-02-17T09:13:18.164Z" agent="Mozilla/5.0 (Macintosh; Intel Mac OS X 10_15_3) AppleWebKit/537.36 (KHTML, like Gecko) Chrome/79.0.3945.130 Safari/537.36" etag="mJpvVCE-6gXK4v96E_2O" version="12.7.0" type="github">
  <diagram id="C5RBs43oDa-KdzZeNtuy" name="Page-1">
    <mxGraphModel dx="1053" dy="942" grid="1" gridSize="10" guides="1" tooltips="1" connect="1" arrows="1" fold="1" page="1" pageScale="1" pageWidth="827" pageHeight="1169" math="0" shadow="0">
      <root>
        <mxCell id="WIyWlLk6GJQsqaUBKTNV-0"/>
        <mxCell id="WIyWlLk6GJQsqaUBKTNV-1" parent="WIyWlLk6GJQsqaUBKTNV-0"/>
        <mxCell id="ur15OjHsovGPjOp776xv-2" value="GH Release v1.X.Y" style="html=1;whiteSpace=wrap;;fontSize=11;fontColor=#ffffff;fontStyle=1;spacing=5;strokeOpacity=0;fillOpacity=100;rounded=1;absoluteArcSize=1;arcSize=9.6;fillColor=#1071e5;strokeWidth=1.2;" parent="WIyWlLk6GJQsqaUBKTNV-1" vertex="1">
          <mxGeometry x="441" y="108" width="84" height="60" as="geometry"/>
        </mxCell>
        <mxCell id="ur15OjHsovGPjOp776xv-4" value="" style="html=1;jettySize=18;fontSize=11;strokeColor=#333333;strokeOpacity=100;strokeWidth=0.6;rounded=1;arcSize=24;edgeStyle=orthogonalEdgeStyle;startArrow=none;endArrow=block;endFill=0;exitX=0.4999999999999999;exitY=1;exitPerimeter=1;entryX=0.5;entryY=0.026008046768488058;entryPerimeter=1;" parent="WIyWlLk6GJQsqaUBKTNV-1" source="ur15OjHsovGPjOp776xv-2" target="ur15OjHsovGPjOp776xv-7" edge="1">
          <mxGeometry width="100" height="100" relative="1" as="geometry"/>
        </mxCell>
        <mxCell id="ur15OjHsovGPjOp776xv-5" value="release-1_X" style="html=1;jettySize=18;fontSize=9;fontColor=#333333;fontStyle=1;strokeColor=#333333;strokeOpacity=100;strokeWidth=0.6;rounded=1;arcSize=24;edgeStyle=orthogonalEdgeStyle;startArrow=none;endArrow=block;endFill=0;exitX=0.4999999999999997;exitY=0.9739919532315111;exitPerimeter=1;entryX=0.4999999999999998;entryY=0.021248022495900597;entryPerimeter=1;" parent="WIyWlLk6GJQsqaUBKTNV-1" source="ur15OjHsovGPjOp776xv-7" target="ur15OjHsovGPjOp776xv-17" edge="1">
          <mxGeometry width="100" height="100" relative="1" as="geometry"/>
        </mxCell>
        <mxCell id="ur15OjHsovGPjOp776xv-7" value="branch ?" style="html=1;whiteSpace=wrap;rhombus;fontSize=11;fontColor=#ffffff;spacing=5;strokeOpacity=0;fillOpacity=100;rounded=1;absoluteArcSize=1;arcSize=9.6;fillColor=#1071e5;strokeWidth=1.2;" parent="WIyWlLk6GJQsqaUBKTNV-1" vertex="1">
          <mxGeometry x="441" y="215" width="84" height="72" as="geometry"/>
        </mxCell>
        <mxCell id="ur15OjHsovGPjOp776xv-8" value="create release-1_X branch" style="html=1;whiteSpace=wrap;;fontSize=11;fontColor=#ffffff;spacing=5;strokeOpacity=0;fillOpacity=100;rounded=1;absoluteArcSize=1;arcSize=9.6;fillColor=#2db539;strokeWidth=1.2;" parent="WIyWlLk6GJQsqaUBKTNV-1" vertex="1">
          <mxGeometry x="237" y="336" width="84" height="60" as="geometry"/>
        </mxCell>
        <mxCell id="ur15OjHsovGPjOp776xv-9" value="release-1_X branch already exists ?" style="html=1;whiteSpace=wrap;rhombus;fontSize=11;fontColor=#ffffff;spacing=5;strokeOpacity=0;fillOpacity=100;rounded=1;absoluteArcSize=1;arcSize=9.6;fillColor=#1071e5;strokeWidth=1.2;" parent="WIyWlLk6GJQsqaUBKTNV-1" vertex="1">
          <mxGeometry x="225" y="209" width="108" height="84" as="geometry"/>
        </mxCell>
        <mxCell id="ur15OjHsovGPjOp776xv-10" value="master" style="html=1;jettySize=18;fontSize=9;fontColor=#333333;fontStyle=1;strokeColor=#333333;strokeOpacity=100;strokeWidth=0.6;rounded=1;arcSize=24;edgeStyle=orthogonalEdgeStyle;startArrow=none;endArrow=block;endFill=0;exitX=0.025737954566052663;exitY=0.5000000000000001;exitPerimeter=1;entryX=0.9788515138816369;entryY=0.5000000000000001;entryPerimeter=1;" parent="WIyWlLk6GJQsqaUBKTNV-1" source="ur15OjHsovGPjOp776xv-7" target="ur15OjHsovGPjOp776xv-9" edge="1">
          <mxGeometry width="100" height="100" relative="1" as="geometry"/>
        </mxCell>
        <mxCell id="ur15OjHsovGPjOp776xv-12" value="NO" style="html=1;jettySize=18;fontSize=9;fontColor=#333333;fontStyle=1;strokeColor=#333333;strokeOpacity=100;strokeWidth=0.6;rounded=1;arcSize=24;edgeStyle=orthogonalEdgeStyle;startArrow=none;endArrow=block;endFill=0;exitX=0.5000000000000001;exitY=0.9787519775040995;exitPerimeter=1;entryX=0.5;entryY=0;entryPerimeter=1;" parent="WIyWlLk6GJQsqaUBKTNV-1" source="ur15OjHsovGPjOp776xv-9" target="ur15OjHsovGPjOp776xv-8" edge="1">
          <mxGeometry width="100" height="100" relative="1" as="geometry"/>
        </mxCell>
        <mxCell id="ur15OjHsovGPjOp776xv-14" value="ERROR" style="html=1;whiteSpace=wrap;rounded=1;arcSize=50;fontSize=11;fontColor=#ffffff;spacing=5;strokeOpacity=0;fillOpacity=100;fillColor=#ff3d3d;strokeWidth=1.2;" parent="WIyWlLk6GJQsqaUBKTNV-1" vertex="1">
          <mxGeometry x="75" y="230" width="84" height="42" as="geometry"/>
        </mxCell>
        <mxCell id="ur15OjHsovGPjOp776xv-15" value="YES" style="html=1;jettySize=18;fontSize=11;fontColor=#333333;align=center;strokeColor=#333333;strokeOpacity=100;strokeWidth=0.6;rounded=1;arcSize=24;edgeStyle=orthogonalEdgeStyle;startArrow=none;endArrow=block;endFill=0;exitX=0.021148486118363997;exitY=0.5000000000000001;exitPerimeter=1;entryX=1;entryY=0.5;entryPerimeter=1;" parent="WIyWlLk6GJQsqaUBKTNV-1" source="ur15OjHsovGPjOp776xv-9" target="ur15OjHsovGPjOp776xv-14" edge="1">
          <mxGeometry width="100" height="100" relative="1" as="geometry"/>
        </mxCell>
        <mxCell id="ur15OjHsovGPjOp776xv-17" value="release-1_X resource exists on TX ?" style="html=1;whiteSpace=wrap;rhombus;fontSize=11;fontColor=#ffffff;spacing=5;strokeOpacity=0;fillOpacity=100;rounded=1;absoluteArcSize=1;arcSize=9.6;fillColor=#1071e5;strokeWidth=1.2;" parent="WIyWlLk6GJQsqaUBKTNV-1" vertex="1">
          <mxGeometry x="429" y="372" width="108" height="84" as="geometry"/>
        </mxCell>
        <mxCell id="ur15OjHsovGPjOp776xv-18" value="copy master resource to release-1_X on TX" style="html=1;whiteSpace=wrap;;fontSize=11;fontColor=#ffffff;spacing=5;strokeOpacity=0;fillOpacity=100;rounded=1;absoluteArcSize=1;arcSize=9.6;fillColor=#2db539;strokeWidth=1.2;" parent="WIyWlLk6GJQsqaUBKTNV-1" vertex="1">
          <mxGeometry x="231" y="456" width="96" height="60" as="geometry"/>
        </mxCell>
        <mxCell id="ur15OjHsovGPjOp776xv-19" value="Yes" style="html=1;jettySize=18;fontSize=11;fontColor=#333333;align=center;strokeColor=#333333;strokeOpacity=100;strokeWidth=0.6;rounded=1;arcSize=24;edgeStyle=orthogonalEdgeStyle;startArrow=none;endArrow=block;endFill=0;exitX=0.4999999999999998;exitY=0.9787519775040995;exitPerimeter=1;entryX=0.12068965517241362;entryY=0;entryPerimeter=1;" parent="WIyWlLk6GJQsqaUBKTNV-1" source="ur15OjHsovGPjOp776xv-17" target="ur15OjHsovGPjOp776xv-28" edge="1">
          <mxGeometry width="100" height="100" relative="1" as="geometry"/>
        </mxCell>
        <mxCell id="ur15OjHsovGPjOp776xv-21" value="No" style="html=1;jettySize=18;fontSize=11;fontColor=#333333;align=center;strokeColor=#333333;strokeOpacity=100;strokeWidth=0.6;rounded=1;arcSize=24;edgeStyle=orthogonalEdgeStyle;startArrow=none;endArrow=block;endFill=0;exitX=0.021148486118363997;exitY=0.5000000000000001;exitPerimeter=1;entryX=0.5;entryY=0;entryPerimeter=1;" parent="WIyWlLk6GJQsqaUBKTNV-1" source="ur15OjHsovGPjOp776xv-17" target="ur15OjHsovGPjOp776xv-18" edge="1">
          <mxGeometry width="100" height="100" relative="1" as="geometry"/>
        </mxCell>
        <mxCell id="ur15OjHsovGPjOp776xv-23" value="" style="html=1;jettySize=18;fontSize=11;strokeColor=#333333;strokeOpacity=100;strokeWidth=0.6;rounded=1;arcSize=24;edgeStyle=orthogonalEdgeStyle;startArrow=none;endArrow=block;endFill=0;exitX=0.5;exitY=1;exitPerimeter=1;entryX=0.5000000000000004;entryY=0;entryPerimeter=1;" parent="WIyWlLk6GJQsqaUBKTNV-1" source="ur15OjHsovGPjOp776xv-8" target="ur15OjHsovGPjOp776xv-18" edge="1">
          <mxGeometry width="100" height="100" relative="1" as="geometry"/>
        </mxCell>
        <mxCell id="ur15OjHsovGPjOp776xv-24" value="Commit on master" style="html=1;whiteSpace=wrap;;fontSize=11;fontColor=#ffffff;fontStyle=1;spacing=5;strokeOpacity=0;fillOpacity=100;rounded=1;absoluteArcSize=1;arcSize=9.6;fillColor=#1071e5;strokeWidth=1.2;" parent="WIyWlLk6GJQsqaUBKTNV-1" vertex="1">
          <mxGeometry x="705" y="108" width="84" height="60" as="geometry"/>
        </mxCell>
        <mxCell id="ur15OjHsovGPjOp776xv-25" value="Commit on PR ZZZ" style="html=1;whiteSpace=wrap;;fontSize=11;fontColor=#ffffff;fontStyle=1;spacing=5;strokeOpacity=0;fillOpacity=100;rounded=1;absoluteArcSize=1;arcSize=9.6;fillColor=#1071e5;strokeWidth=1.2;" parent="WIyWlLk6GJQsqaUBKTNV-1" vertex="1">
          <mxGeometry x="573" y="108" width="84" height="60" as="geometry"/>
        </mxCell>
        <mxCell id="ur15OjHsovGPjOp776xv-26" value="push to TX" style="html=1;whiteSpace=wrap;;fontSize=11;fontColor=#ffffff;spacing=5;strokeOpacity=0;fillOpacity=100;rounded=1;absoluteArcSize=1;arcSize=9.6;fillColor=#2db539;strokeWidth=1.2;" parent="WIyWlLk6GJQsqaUBKTNV-1" vertex="1">
          <mxGeometry x="825" y="552" width="84" height="60" as="geometry"/>
        </mxCell>
        <mxCell id="ur15OjHsovGPjOp776xv-27" value="" style="html=1;jettySize=18;fontSize=11;strokeColor=#333333;strokeOpacity=100;strokeWidth=0.6;rounded=1;arcSize=24;edgeStyle=orthogonalEdgeStyle;startArrow=none;endArrow=block;endFill=0;exitX=0.4999999999999999;exitY=1;exitPerimeter=1;entryX=0.5;entryY=0;entryPerimeter=1;" parent="WIyWlLk6GJQsqaUBKTNV-1" source="ur15OjHsovGPjOp776xv-24" target="ur15OjHsovGPjOp776xv-26" edge="1">
          <mxGeometry width="100" height="100" relative="1" as="geometry"/>
        </mxCell>
        <mxCell id="ur15OjHsovGPjOp776xv-28" value="pull from TX" style="html=1;whiteSpace=wrap;;fontSize=11;fontColor=#ffffff;spacing=5;strokeOpacity=0;fillOpacity=100;rounded=1;absoluteArcSize=1;arcSize=9.6;fillColor=#2db539;strokeWidth=1.2;" parent="WIyWlLk6GJQsqaUBKTNV-1" vertex="1">
          <mxGeometry x="441" y="552" width="348" height="60" as="geometry"/>
        </mxCell>
        <mxCell id="ur15OjHsovGPjOp776xv-29" value="" style="html=1;jettySize=18;fontSize=11;strokeColor=#333333;strokeOpacity=100;strokeWidth=0.6;rounded=1;arcSize=24;edgeStyle=orthogonalEdgeStyle;startArrow=none;endArrow=block;endFill=0;exitX=0.5;exitY=1.0000000000000007;exitPerimeter=1;entryX=0.12068965517241362;entryY=0;entryPerimeter=1;" parent="WIyWlLk6GJQsqaUBKTNV-1" source="ur15OjHsovGPjOp776xv-18" target="ur15OjHsovGPjOp776xv-28" edge="1">
          <mxGeometry width="100" height="100" relative="1" as="geometry"/>
        </mxCell>
        <mxCell id="ur15OjHsovGPjOp776xv-30" value="" style="html=1;jettySize=18;fontSize=11;strokeColor=#333333;strokeOpacity=100;strokeWidth=0.6;rounded=1;arcSize=24;edgeStyle=orthogonalEdgeStyle;startArrow=none;endArrow=block;endFill=0;exitX=0.4999999999999999;exitY=1;exitPerimeter=1;entryX=0.8793103448275864;entryY=0;entryPerimeter=1;startSize=6;endSize=6;" parent="WIyWlLk6GJQsqaUBKTNV-1" source="ur15OjHsovGPjOp776xv-24" target="ur15OjHsovGPjOp776xv-28" edge="1">
          <mxGeometry width="100" height="100" relative="1" as="geometry"/>
        </mxCell>
        <mxCell id="ur15OjHsovGPjOp776xv-31" value="" style="html=1;jettySize=18;fontSize=11;strokeColor=#333333;strokeOpacity=100;strokeWidth=0.6;rounded=1;arcSize=24;edgeStyle=orthogonalEdgeStyle;startArrow=none;endArrow=block;endFill=0;exitX=0.4999999999999999;exitY=1;exitPerimeter=1;entryX=0.5000000000000001;entryY=0;entryPerimeter=1;" parent="WIyWlLk6GJQsqaUBKTNV-1" source="ur15OjHsovGPjOp776xv-25" target="ur15OjHsovGPjOp776xv-28" edge="1">
          <mxGeometry width="100" height="100" relative="1" as="geometry"/>
        </mxCell>
        <mxCell id="ur15OjHsovGPjOp776xv-32" value="write coment with APK links in commit or PR on GH" style="html=1;whiteSpace=wrap;;fontSize=11;fontColor=#ffffff;spacing=5;strokeOpacity=0;fillOpacity=100;rounded=1;absoluteArcSize=1;arcSize=9.6;fillColor=#2db539;strokeWidth=1.2;" parent="WIyWlLk6GJQsqaUBKTNV-1" vertex="1">
          <mxGeometry x="441" y="654" width="348" height="60" as="geometry"/>
        </mxCell>
        <mxCell id="ur15OjHsovGPjOp776xv-33" value="" style="html=1;jettySize=18;fontSize=11;strokeColor=#333333;strokeOpacity=100;strokeWidth=0.6;rounded=1;arcSize=24;edgeStyle=orthogonalEdgeStyle;startArrow=none;endArrow=block;endFill=0;exitX=0.12279351701888692;exitY=1;exitPerimeter=1;entryX=0.12279351701888687;entryY=0;entryPerimeter=1;" parent="WIyWlLk6GJQsqaUBKTNV-1" source="ur15OjHsovGPjOp776xv-28" target="ur15OjHsovGPjOp776xv-32" edge="1">
          <mxGeometry width="100" height="100" relative="1" as="geometry"/>
        </mxCell>
        <mxCell id="ur15OjHsovGPjOp776xv-34" value="" style="html=1;jettySize=18;fontSize=11;strokeColor=#333333;strokeOpacity=100;strokeWidth=0.6;rounded=1;arcSize=24;edgeStyle=orthogonalEdgeStyle;startArrow=none;endArrow=block;endFill=0;exitX=0.5000000000000001;exitY=1;exitPerimeter=1;entryX=0.5000000000000001;entryY=0;entryPerimeter=1;" parent="WIyWlLk6GJQsqaUBKTNV-1" source="ur15OjHsovGPjOp776xv-28" target="ur15OjHsovGPjOp776xv-32" edge="1">
          <mxGeometry width="100" height="100" relative="1" as="geometry"/>
        </mxCell>
        <mxCell id="ur15OjHsovGPjOp776xv-35" value="" style="html=1;jettySize=18;fontSize=11;strokeColor=#333333;strokeOpacity=100;strokeWidth=0.6;rounded=1;arcSize=24;edgeStyle=orthogonalEdgeStyle;startArrow=none;endArrow=block;endFill=0;exitX=0.8777235129899184;exitY=1;exitPerimeter=1;entryX=0.8777235129899189;entryY=7.12823771829956e-17;entryPerimeter=1;" parent="WIyWlLk6GJQsqaUBKTNV-1" source="ur15OjHsovGPjOp776xv-28" target="ur15OjHsovGPjOp776xv-32" edge="1">
          <mxGeometry width="100" height="100" relative="1" as="geometry"/>
        </mxCell>
        <mxCell id="ur15OjHsovGPjOp776xv-36" value="Play Store track: beta" style="html=1;whiteSpace=wrap;;fontSize=11;fontColor=#ffffff;spacing=5;strokeOpacity=0;fillOpacity=100;rounded=1;absoluteArcSize=1;arcSize=9.6;fillColor=#2db539;strokeWidth=1.2;" parent="WIyWlLk6GJQsqaUBKTNV-1" vertex="1">
          <mxGeometry x="705" y="768" width="84" height="60" as="geometry"/>
        </mxCell>
        <mxCell id="ur15OjHsovGPjOp776xv-37" value="Play Store track: internal" style="html=1;whiteSpace=wrap;;fontSize=11;fontColor=#ffffff;spacing=5;strokeOpacity=0;fillOpacity=100;rounded=1;absoluteArcSize=1;arcSize=9.6;fillColor=#2db539;strokeWidth=1.2;" parent="WIyWlLk6GJQsqaUBKTNV-1" vertex="1">
          <mxGeometry x="441" y="768" width="84" height="60" as="geometry"/>
        </mxCell>
        <mxCell id="ur15OjHsovGPjOp776xv-38" value="" style="html=1;jettySize=18;fontSize=11;strokeColor=#333333;strokeOpacity=100;strokeWidth=0.6;rounded=1;arcSize=24;edgeStyle=orthogonalEdgeStyle;startArrow=none;endArrow=block;endFill=0;exitX=0.12020814032035608;exitY=1;exitPerimeter=1;entryX=0.5;entryY=0;entryPerimeter=1;" parent="WIyWlLk6GJQsqaUBKTNV-1" source="ur15OjHsovGPjOp776xv-32" target="ur15OjHsovGPjOp776xv-37" edge="1">
          <mxGeometry width="100" height="100" relative="1" as="geometry"/>
        </mxCell>
        <mxCell id="ur15OjHsovGPjOp776xv-39" value="" style="html=1;jettySize=18;fontSize=11;strokeColor=#333333;strokeOpacity=100;strokeWidth=0.6;rounded=1;arcSize=24;edgeStyle=orthogonalEdgeStyle;startArrow=none;endArrow=block;endFill=0;exitX=0.8793103448275857;exitY=1;exitPerimeter=1;entryX=0.5;entryY=0;entryPerimeter=1;" parent="WIyWlLk6GJQsqaUBKTNV-1" source="ur15OjHsovGPjOp776xv-32" target="ur15OjHsovGPjOp776xv-36" edge="1">
          <mxGeometry width="100" height="100" relative="1" as="geometry"/>
        </mxCell>
      </root>
    </mxGraphModel>
  </diagram>
</mxfile>
